#N canvas 333 227 840 501 10;
#X obj 92 307 change;
#X obj 204 307 change;
#X obj 200 362 pack;
#X obj 254 330 t b f;
#X obj 206 526 spigot;
#X obj 206 477 int 1;
#X obj 269 475 t b b;
#X obj 370 444 select 0;
#X obj 371 529 spigot;
#X obj 370 477 int 1;
#X obj 433 475 t b b;
#X obj 206 444 select 0;
#X obj 75 172 inlet;
#X obj 199 165 inlet;
#X obj 136 630 send left\$1;
#X obj 238 617 send right\$1;
#X obj 362 38 inlet;
#X obj 354 168 change;
#X obj 352 203 send push\$1;
#X obj 354 106 * 2;
#X obj 354 137 mod 2;
#X obj 204 245 * 2;
#X obj 92 245 * 2;
#X obj 269 444 select 1;
#X obj 433 444 select 1;
#X floatatom 602 33 5 0 0 0 - - -, f 5;
#X obj 602 74 print;
#X obj 600 52 int;
#X obj 204 276 int;
#X obj 92 276 int;
#X obj 206 411 route 1 0;
#X obj 311 508 int 0;
#X obj 429 502 int 1;
#X obj 467 505 int 0;
#X obj 269 506 int 1;
#X connect 0 0 2 0;
#X connect 1 0 3 0;
#X connect 2 0 30 0;
#X connect 3 0 2 0;
#X connect 3 1 2 1;
#X connect 4 0 14 0;
#X connect 6 0 34 0;
#X connect 6 1 33 0;
#X connect 7 0 9 0;
#X connect 7 0 8 0;
#X connect 8 0 15 0;
#X connect 10 0 32 0;
#X connect 10 1 31 0;
#X connect 11 0 5 0;
#X connect 11 0 4 0;
#X connect 12 0 22 0;
#X connect 13 0 21 0;
#X connect 16 0 19 0;
#X connect 17 0 18 0;
#X connect 19 0 20 0;
#X connect 20 0 17 0;
#X connect 21 0 28 0;
#X connect 22 0 29 0;
#X connect 23 0 6 0;
#X connect 24 0 10 0;
#X connect 25 0 27 0;
#X connect 27 0 26 0;
#X connect 28 0 1 0;
#X connect 29 0 0 0;
#X connect 30 0 11 0;
#X connect 30 0 23 0;
#X connect 30 1 7 0;
#X connect 30 1 24 0;
#X connect 31 0 4 1;
#X connect 32 0 8 1;
#X connect 33 0 8 1;
#X connect 34 0 4 1;
