#N canvas 0 22 883 709 10;
#X obj 180 207 select 1;
#X msg 230 234 0;
#X msg 180 232 1;
#X msg 348 234 0;
#X msg 293 234 1;
#X msg 281 330 0;
#X msg 228 341 1;
#X msg 399 330 0;
#X msg 344 330 1;
#X obj 231 303 select 2;
#X obj 317 110 loadbang;
#X obj 316 143 int \$2;
#X text 447 52 page number;
#X obj 310 44 inlet;
#X text 293 21 instrument number;
#X obj 61 113 receive left\$1;
#X obj 86 138 receive right\$1;
#X obj 113 165 receive push\$1;
#X obj 298 207 select \$2;
#X obj 349 303 select \$2;
#X obj 459 65 inlet;
#X msg 371 454 0;
#X msg 321 452 1;
#X msg 489 454 0;
#X msg 434 454 1;
#X msg 422 550 0;
#X msg 369 561 1;
#X msg 540 550 0;
#X msg 485 550 1;
#X obj 439 427 select \$2;
#X obj 490 523 select \$2;
#X obj 321 427 select 3;
#X obj 372 523 select 4;
#X obj 13 416 print \$1s;
#X obj 16 326 loadbang;
#X obj 16 348 del 5000;
#X obj 16 370 v debug;
#X obj 13 395 spigot;
#X obj 38 494 spigot;
#X obj 82 546 spigot;
#X obj 166 627 spigot;
#X obj 166 648 print \$1m;
#X obj 82 567 print \$1a;
#X obj 38 515 print \$1f;
#X obj 82 391 v debug;
#X obj 84 363 int 1;
#X obj 305 678 send \$1m\$2;
#X obj 110 278 z-cell \$1 \$2 s, f 19;
#X obj 310 637 z-cell \$1 \$2 m;
#X obj 251 498 z-cell \$1 \$2 a;
#X obj 169 417 z-cell \$1 \$2 f;
#X connect 0 0 2 0;
#X connect 0 1 1 0;
#X connect 1 0 47 3;
#X connect 2 0 47 3;
#X connect 3 0 47 4;
#X connect 4 0 47 4;
#X connect 5 0 50 3;
#X connect 6 0 50 3;
#X connect 7 0 50 4;
#X connect 8 0 50 4;
#X connect 9 0 6 0;
#X connect 9 1 5 0;
#X connect 10 0 11 0;
#X connect 13 0 18 0;
#X connect 13 0 19 0;
#X connect 13 0 29 0;
#X connect 13 0 30 0;
#X connect 15 0 47 0;
#X connect 15 0 48 0;
#X connect 15 0 49 0;
#X connect 15 0 50 0;
#X connect 16 0 47 1;
#X connect 16 0 48 1;
#X connect 16 0 49 1;
#X connect 16 0 50 1;
#X connect 17 0 47 2;
#X connect 17 0 48 2;
#X connect 17 0 49 2;
#X connect 17 0 50 2;
#X connect 18 0 4 0;
#X connect 18 1 3 0;
#X connect 19 0 8 0;
#X connect 19 1 7 0;
#X connect 20 0 0 0;
#X connect 20 0 9 0;
#X connect 20 0 31 0;
#X connect 20 0 32 0;
#X connect 21 0 49 3;
#X connect 22 0 49 3;
#X connect 23 0 49 4;
#X connect 24 0 49 4;
#X connect 25 0 48 3;
#X connect 26 0 48 3;
#X connect 27 0 48 4;
#X connect 28 0 48 4;
#X connect 29 0 24 0;
#X connect 29 1 23 0;
#X connect 30 0 28 0;
#X connect 30 1 27 0;
#X connect 31 0 22 0;
#X connect 31 1 21 0;
#X connect 32 0 26 0;
#X connect 32 1 25 0;
#X connect 34 0 35 0;
#X connect 34 0 45 0;
#X connect 35 0 36 0;
#X connect 36 0 37 1;
#X connect 36 0 38 1;
#X connect 36 0 39 1;
#X connect 36 0 40 1;
#X connect 37 0 33 0;
#X connect 38 0 43 0;
#X connect 39 0 42 0;
#X connect 40 0 41 0;
#X connect 45 0 44 0;
#X connect 47 0 37 0;
#X connect 48 0 40 0;
#X connect 48 0 46 0;
#X connect 49 0 39 0;
#X connect 50 0 38 0;
