#N canvas 0 22 1680 1024 10;
#X obj 198 500 t f f f f f f f f;
#X obj 197 575 t f f f f f f f f;
#X obj 199 362 t f f f f f f f f;
#X obj 141 376 int 1;
#X obj 233 300 int 50;
#X obj 289 263 bng 15 250 50 0 empty empty empty 17 7 0 10 -262144
-1 -1;
#X obj 197 437 t f f f f f f f f;
#X obj 181 152 loadbang;
#X obj 199 395 v As\$1;
#X obj 255 395 v Bs\$1;
#X obj 309 395 v Cs\$1;
#X obj 362 395 v Ds\$1;
#X obj 412 395 v Es\$1;
#X obj 471 395 v Fs\$1;
#X obj 523 395 v Gs\$1;
#X obj 197 470 v Af\$1;
#X obj 253 470 v Bf\$1;
#X obj 307 470 v Cf\$1;
#X obj 360 470 v Df\$1;
#X obj 410 470 v Ef\$1;
#X obj 469 470 v Ff\$1;
#X obj 521 470 v Gf\$1;
#X obj 576 470 v Hf\$1;
#X obj 578 395 v Hs\$1;
#X obj 577 533 v Ha\$1;
#X obj 522 533 v Ga\$1;
#X obj 470 533 v Fa\$1;
#X obj 411 533 v Ea\$1;
#X obj 361 533 v Da\$1;
#X obj 254 533 v Ba\$1;
#X obj 198 533 v Aa\$1;
#X obj 308 533 v Ca\$1;
#X obj 576 608 v Hm\$1;
#X obj 521 608 v Gm\$1;
#X obj 469 608 v Fm\$1;
#X obj 410 608 v Em\$1;
#X obj 360 608 v Dm\$1;
#X obj 307 608 v Cm\$1;
#X obj 253 608 v Bm\$1;
#X obj 197 608 v Am\$1;
#X obj 185 183 del 7500;
#X connect 0 1 29 0;
#X connect 0 2 31 0;
#X connect 0 3 28 0;
#X connect 0 4 27 0;
#X connect 0 5 26 0;
#X connect 0 6 25 0;
#X connect 0 7 24 0;
#X connect 1 0 39 0;
#X connect 1 1 38 0;
#X connect 1 2 37 0;
#X connect 1 3 36 0;
#X connect 1 4 35 0;
#X connect 1 5 34 0;
#X connect 1 6 33 0;
#X connect 1 7 32 0;
#X connect 2 1 9 0;
#X connect 2 2 10 0;
#X connect 2 3 11 0;
#X connect 2 4 12 0;
#X connect 2 5 13 0;
#X connect 2 6 14 0;
#X connect 2 7 23 0;
#X connect 3 0 8 0;
#X connect 3 0 30 0;
#X connect 4 0 2 0;
#X connect 4 0 6 0;
#X connect 4 0 0 0;
#X connect 4 0 1 0;
#X connect 5 0 4 0;
#X connect 6 0 15 0;
#X connect 6 1 16 0;
#X connect 6 2 17 0;
#X connect 6 3 18 0;
#X connect 6 4 19 0;
#X connect 6 5 20 0;
#X connect 6 6 21 0;
#X connect 6 7 22 0;
#X connect 7 0 40 0;
#X connect 40 0 3 0;
#X connect 40 0 2 0;
#X connect 40 0 4 0;
