#N canvas 921 280 783 555 10;
#X obj 274 235 + 1;
#X obj 643 176 != 1;
#X obj 261 306 spigot;
#X obj 382 295 spigot;
#X obj 394 235 + 10;
#X obj 39 303 spigot;
#X obj 147 307 spigot;
#X obj 159 245 - 10;
#X obj 39 245 - 1;
#X obj 111 20 inlet;
#X obj 220 18 inlet;
#X obj 343 73 inlet;
#X obj 446 66 inlet;
#X obj 545 75 inlet;
#X obj 640 68 inlet;
#X text 424 37 instrument;
#X text 545 36 page;
#X obj 111 61 spigot;
#X obj 114 97 spigot;
#X obj 219 51 spigot;
#X obj 222 87 spigot, f 14;
#X obj 213 411 outlet;
#X obj 37 348 clip 1 99;
#X obj 147 347 clip 1 99;
#X obj 262 350 clip 1 99;
#X obj 370 351 clip 1 99;
#X obj 431 128 spigot;
#X obj 434 164 spigot, f 14;
#X text 620 42 deger degistirmeleri;
#X obj 112 130 v \$1\$3\$2;
#X obj 221 126 v \$1\$3\$2;
#X connect 0 0 2 0;
#X connect 1 0 3 1;
#X connect 1 0 6 1;
#X connect 2 0 24 0;
#X connect 3 0 25 0;
#X connect 4 0 3 0;
#X connect 5 0 22 0;
#X connect 6 0 23 0;
#X connect 7 0 6 0;
#X connect 8 0 5 0;
#X connect 9 0 17 0;
#X connect 10 0 19 0;
#X connect 11 0 1 0;
#X connect 11 0 2 1;
#X connect 11 0 5 1;
#X connect 12 0 17 1;
#X connect 12 0 19 1;
#X connect 12 0 26 1;
#X connect 13 0 18 1;
#X connect 13 0 20 1;
#X connect 13 0 27 1;
#X connect 14 0 26 0;
#X connect 17 0 18 0;
#X connect 18 0 29 0;
#X connect 19 0 20 0;
#X connect 20 0 30 0;
#X connect 22 0 21 0;
#X connect 22 0 29 0;
#X connect 23 0 21 0;
#X connect 23 0 29 0;
#X connect 24 0 21 0;
#X connect 24 0 30 0;
#X connect 25 0 21 0;
#X connect 25 0 30 0;
#X connect 26 0 27 0;
#X connect 29 0 8 0;
#X connect 29 0 7 0;
#X connect 30 0 0 0;
#X connect 30 0 4 0;
